<svg xmlns="http://www.w3.org/2000/svg" width="128" height="128" viewBox="0 0 128 128">
  <metadata><?xpacket begin="﻿" id="W5M0MpCehiHzreSzNTczkc9d"?>
<x:xmpmeta xmlns:x="adobe:ns:meta/" x:xmptk="Adobe XMP Core 5.6-c138 79.159824, 2016/09/14-01:09:01        ">
   <rdf:RDF xmlns:rdf="http://www.w3.org/1999/02/22-rdf-syntax-ns#">
      <rdf:Description rdf:about=""/>
   </rdf:RDF>
</x:xmpmeta>
                                                                                                    
                                                                                                    
                                                                                                    
                                                                                                    
                                                                                                    
                                                                                                    
                                                                                                    
                                                                                                    
                                                                                                    
                                                                                                    
                                                                                                    
                                                                                                    
                                                                                                    
                                                                                                    
                                                                                                    
                                                                                                    
                                                                                                    
                                                                                                    
                                                                                                    
                                                                                                    
                           
<?xpacket end="w"?></metadata>
<defs>
    <style>
      .cls-1 {
        fill: #fff;
        fill-rule: evenodd;
      }
    </style>
  </defs>
  <path id="Forma_1" data-name="Forma 1" class="cls-1" d="M620,734l-37.1-12.365A61.513,61.513,0,1,1,607.635,696.9Zm-93.13-75.5a26.592,26.592,0,0,0,1.331,8.258L506,677a98.564,98.564,0,0,0,2.81,13.125C511.265,698.579,519,708,519,708a32.6,32.6,0,0,0,.126-9.993A35.083,35.083,0,0,1,519,690l16.307-12.053A26.586,26.586,0,0,0,550.584,685H556.5A26.669,26.669,0,1,0,526.87,658.5Zm55.567-17.72a27.926,27.926,0,0,0-41.335-7.342,28.3,28.3,0,0,1,29.7,47.678A27.918,27.918,0,0,0,582.437,640.775ZM565.99,658.5a12.451,12.451,0,1,1-12.452-12.452A12.45,12.45,0,0,1,565.99,658.5Zm-12.452-10.663A10.668,10.668,0,1,0,564.207,658.5,10.666,10.666,0,0,0,553.538,647.832Zm0,14.216a3.553,3.553,0,0,1-3.559-3.553h3.559v-3.56A3.557,3.557,0,1,1,553.538,662.048Z" transform="translate(-492 -606)"/>
</svg>
