<svg xmlns="http://www.w3.org/2000/svg" width="28" height="32" viewBox="0 0 28 32" preserveAspectRatio="xMidYMid">
  <defs>
    <style type="text/css">
      .cls-1 {
        fill: #ccc;
        fill-rule: evenodd;
      }
    </style>
  </defs>
  <path id="icon-page" class="cls-1" d="M1644.59,203.406A1.939,1.939,0,0,1,1644,202V178a2.022,2.022,0,0,1,2-2h20a2.022,2.022,0,0,1,2,2v2h2a2.022,2.022,0,0,1,2,2v24a2.022,2.022,0,0,1-2,2h-20a2.022,2.022,0,0,1-2-2v-2h-2A1.939,1.939,0,0,1,1644.59,203.406ZM1668,182v20a2.022,2.022,0,0,1-2,2h-16v2h20V182h-2Zm-13.09-2a0.981,0.981,0,0,0-.71.3,1,1,0,0,0,0,1.406,0.981,0.981,0,0,0,.71.3H1663a1,1,0,0,0,0-2h-8.09Zm-6.71,6.3a1,1,0,0,0,0,1.406,0.981,0.981,0,0,0,.71.3H1663a1,1,0,0,0,0-2h-14.09A0.981,0.981,0,0,0,1648.2,186.3Zm0,6a1,1,0,0,0,0,1.406,0.981,0.981,0,0,0,.71.3H1663a1,1,0,0,0,0-2h-14.09A0.981,0.981,0,0,0,1648.2,192.3Zm0,6a1,1,0,0,0,0,1.406,0.981,0.981,0,0,0,.71.3H1663a1,1,0,0,0,0-2h-14.09A0.981,0.981,0,0,0,1648.2,198.3Z" transform="translate(-1644 -176)"/>
</svg>
