<svg xmlns="http://www.w3.org/2000/svg" width="24" height="18" viewBox="0 0 24 18" preserveAspectRatio="xMidYMid">
	<style type="text/css">
	  .cls-1 {
		fill: #ccc;
		fill-rule: evenodd;
	  }
	</style>
  <path id="icon-category" class="cls-1" d="M1677.3,161.7a0.974,0.974,0,0,1,0-1.406,0.943,0.943,0,0,1,.7-0.3h16a1,1,0,0,1,0,2h-16A0.943,0.943,0,0,1,1677.3,161.7Zm0-8a0.974,0.974,0,0,1,0-1.406,0.943,0.943,0,0,1,.7-0.3h16a1,1,0,0,1,0,2h-16A0.943,0.943,0,0,1,1677.3,153.7Zm0,16a0.974,0.974,0,0,1,0-1.406,0.943,0.943,0,0,1,.7-0.3h16a1,1,0,0,1,0,2h-16A0.943,0.943,0,0,1,1677.3,169.7Zm-6-17.406a0.943,0.943,0,0,1,.7-0.3,1,1,0,0,1,0,2,0.943,0.943,0,0,1-.7-0.3A0.974,0.974,0,0,1,1671.3,152.3Zm0,8a0.943,0.943,0,0,1,.7-0.3,1,1,0,0,1,0,2,0.943,0.943,0,0,1-.7-0.3A0.974,0.974,0,0,1,1671.3,160.3Zm0,8a0.943,0.943,0,0,1,.7-0.3,1,1,0,0,1,0,2,0.943,0.943,0,0,1-.7-0.3A0.974,0.974,0,0,1,1671.3,168.3Z" transform="translate(-1671 -152)"/>
</svg>
