<svg xmlns="http://www.w3.org/2000/svg" width="31.94" height="26.094" viewBox="0 0 31.94 26.094" preserveAspectRatio="xMidYMid">
    <style type="text/css">
      .cls-1 {
        fill: #ccc;
        fill-rule: evenodd;
      }
    </style>
  <path id="icon-comment" class="cls-1" d="M1690.91,112.781a10.025,10.025,0,0,1,2.98,3.125,7.742,7.742,0,0,1,.31,7.422,8.934,8.934,0,0,1-2.2,2.828,12.756,12.756,0,0,0,1.91,2.969,25.472,25.472,0,0,1-2.71-.156,5.559,5.559,0,0,0-5.15,0,14.216,14.216,0,0,1-5.14-.031,12.4,12.4,0,0,1-2.41-.719,17.356,17.356,0,0,0,5.02-1.61,15.4,15.4,0,0,0,4.03-2.89,13.206,13.206,0,0,0,2.67-3.891,11.282,11.282,0,0,0,.97-4.609,10.111,10.111,0,0,0-.08-1.235c-0.05-.406-0.12-0.807-0.2-1.2h0Zm-26.44,13.625a1.113,1.113,0,0,1-.11-0.547,0.863,0.863,0,0,1,.2-0.515,16.526,16.526,0,0,0,1.1-1.641,15.119,15.119,0,0,0,.87-1.765,11.249,11.249,0,0,1-2.56-3.563,9.917,9.917,0,0,1,.08-8.469,11.281,11.281,0,0,1,2.68-3.547,12.942,12.942,0,0,1,3.99-2.39,14.018,14.018,0,0,1,9.75,0,12.776,12.776,0,0,1,3.98,2.39,11.312,11.312,0,0,1,2.69,3.547,9.787,9.787,0,0,1,.99,4.344,10.114,10.114,0,0,1-.97,4.375,11.035,11.035,0,0,1-2.66,3.531,12.7,12.7,0,0,1-3.98,2.375,13.773,13.773,0,0,1-4.93.875,18.369,18.369,0,0,1-2.29-.234c-1.08-.156-1.91-0.286-2.52-0.391a15.643,15.643,0,0,1-3.12,1.594,8.279,8.279,0,0,1-2.25.563,0.026,0.026,0,0,1-.02.031h-0.05a0.965,0.965,0,0,1-.5-0.156,1.018,1.018,0,0,1-.37-0.407h0Zm0.59-12.156a7.965,7.965,0,0,0,.85,3.594,9.091,9.091,0,0,0,2.43,3.031,0.847,0.847,0,0,1,.33.5,1.087,1.087,0,0,1-.01.594c-0.15.4-.3,0.776-0.46,1.14s-0.34.735-.54,1.11q0.525-.25,1.14-0.578t1.23-.735a0.759,0.759,0,0,1,.36-0.156,1.213,1.213,0,0,1,.39,0c0.44,0.083,1.25.208,2.44,0.375a21.552,21.552,0,0,0,2.37.25,12.451,12.451,0,0,0,4.19-.687,10.236,10.236,0,0,0,3.35-1.922,9.04,9.04,0,0,0,2.2-2.907,8.3,8.3,0,0,0,.8-3.609,7.982,7.982,0,0,0-.83-3.578,9.5,9.5,0,0,0-2.25-2.906,10.9,10.9,0,0,0-3.35-1.953,12.106,12.106,0,0,0-8.22,0,10.847,10.847,0,0,0-3.34,1.953,9.2,9.2,0,0,0-2.25,2.906,7.982,7.982,0,0,0-.83,3.578h0Z" transform="translate(-1663.06 -103.094)"/>
</svg>
