<svg xmlns="http://www.w3.org/2000/svg" width="20" height="32" viewBox="0 0 20 32" preserveAspectRatio="xMidYMid">
  <defs>
    <style type="text/css">
      .cls-1 {
        fill: #ccc;
        fill-rule: evenodd;
      }
    </style>
  </defs>
  <path id="icon-author" class="cls-1" d="M1647.52,72.3a6.546,6.546,0,0,1-1.32,1.906,6.279,6.279,0,0,1-1.9,1.313,5.7,5.7,0,0,1-4.6,0,6.279,6.279,0,0,1-1.9-1.312,6.359,6.359,0,0,1-1.32-1.906,5.736,5.736,0,0,1,0-4.594,6.366,6.366,0,0,1,1.32-1.906,6.3,6.3,0,0,1,1.9-1.312,5.7,5.7,0,0,1,4.6,0,6.3,6.3,0,0,1,1.9,1.313,6.552,6.552,0,0,1,1.32,1.906A5.736,5.736,0,0,1,1647.52,72.3ZM1642,78a7.731,7.731,0,0,1,3.78,1,10.7,10.7,0,0,1,3.19,2.719,13.756,13.756,0,0,1,2.2,4.031,14.684,14.684,0,0,1,.83,4.969q0,2.625-3.12,3.953a18.458,18.458,0,0,1-13.75,0Q1632,93.344,1632,90.719a14.684,14.684,0,0,1,.83-4.969,13.756,13.756,0,0,1,2.2-4.031A10.7,10.7,0,0,1,1638.22,79a7.731,7.731,0,0,1,3.78-1h0Z" transform="translate(-1632 -64)"/>
</svg>
