<svg xmlns="http://www.w3.org/2000/svg" width="24" height="32" viewBox="0 0 24 32" preserveAspectRatio="xMidYMid">
  <defs>
    <style type="text/css">
      .cls-1 {
        fill: #ccc;
        fill-rule: evenodd;
      }
    </style>
  </defs>
  <path id="icon-tag" class="cls-1" d="M1584.34,203.109A1.949,1.949,0,0,1,1584,202V174a2.022,2.022,0,0,1,2-2h20a2.022,2.022,0,0,1,2,2v28a1.949,1.949,0,0,1-.34,1.109,1.884,1.884,0,0,1-.91.735,0.941,0.941,0,0,1-.36.125,2.667,2.667,0,0,1-.39.031,1.939,1.939,0,0,1-.75-0.156,2.063,2.063,0,0,1-.66-0.438l-8.59-8.593-8.59,8.593a2.063,2.063,0,0,1-.66.438,1.939,1.939,0,0,1-.75.156,2.667,2.667,0,0,1-.39-0.031,1.247,1.247,0,0,1-.39-0.125A1.906,1.906,0,0,1,1584.34,203.109ZM1606,202V180h-20v22l10-10Zm-20-28v4h20v-4h-20Z" transform="translate(-1584 -172)"/>
</svg>
