<svg xmlns="http://www.w3.org/2000/svg" width="32" height="32" viewBox="0 0 32 32" preserveAspectRatio="xMidYMid">
  <defs>
    <style type="text/css">
      .cls-1 {
        fill: #ccc;
        fill-rule: evenodd;
      }
    </style>
  </defs>
  <path id="icon-date" class="cls-1" d="M1589,86a15.462,15.462,0,0,1,6.23,1.266,16.305,16.305,0,0,1,5.1,3.438,16.013,16.013,0,0,1,3.42,5.078,16.095,16.095,0,0,1,0,12.438,16.014,16.014,0,0,1-3.42,5.078,16.285,16.285,0,0,1-5.1,3.437,15.9,15.9,0,0,1-11.64.313,16.143,16.143,0,0,1-8.21-6.656,15.2,15.2,0,0,1-2.04-5.11,0.993,0.993,0,0,1,.75-1.187,0.913,0.913,0,0,1,.75.14,1.023,1.023,0,0,1,.44.641,13.51,13.51,0,0,0,1.78,4.453,14.325,14.325,0,0,0,3.11,3.531,14.065,14.065,0,0,0,4.1,2.313A13.641,13.641,0,0,0,1589,116a13.5,13.5,0,0,0,5.45-1.109,14.467,14.467,0,0,0,4.46-3,13.949,13.949,0,0,0,3-4.438,14.185,14.185,0,0,0,0-10.906,13.946,13.946,0,0,0-3-4.437,14.457,14.457,0,0,0-4.46-3A13.494,13.494,0,0,0,1589,88a13.79,13.79,0,0,0-7.48,2.172,14.178,14.178,0,0,0-2.96,2.516A13.885,13.885,0,0,0,1576.38,96H1580a1,1,0,0,1,0,2h-6a0.954,0.954,0,0,1-.72-0.3A0.976,0.976,0,0,1,1573,97V91a0.977,0.977,0,0,1,.28-0.7,1.01,1.01,0,0,1,1.72.7v3.313a15.96,15.96,0,0,1,2.52-3.453,15.3,15.3,0,0,1,3.29-2.625A15.977,15.977,0,0,1,1589,86h0Zm-0.3,6.3a0.957,0.957,0,0,1,.3.7v9h7a1,1,0,0,1,0,2h-8a0.971,0.971,0,0,1-.7-0.281A0.943,0.943,0,0,1,1587,103V93a0.957,0.957,0,0,1,.3-0.7,0.943,0.943,0,0,1,.7-0.3h0A0.959,0.959,0,0,1,1588.7,92.3Z" transform="translate(-1573 -86)"/>
</svg>
