<svg xmlns="http://www.w3.org/2000/svg" width="74.59" height="74.59" viewBox="0 0 74.59 74.59" preserveAspectRatio="xMidYMid">
  <defs>
    <style type="text/css">
      .cls-1 {
        fill: #ccc;
        fill-rule: evenodd;
      }
    </style>
  </defs>
  <path id="play" class="cls-1" d="M1115.29,1171.7a37.29,37.29,0,1,0,37.29,37.29A37.3,37.3,0,0,0,1115.29,1171.7Zm18.64,39.96-26.41,15.53a2.944,2.944,0,0,1-1.55.44,3.432,3.432,0,0,1-1.56-.39,3.151,3.151,0,0,1-1.55-2.72v-31.07a3.151,3.151,0,0,1,1.55-2.72,3.112,3.112,0,0,1,3.11.05l26.41,15.54A3.065,3.065,0,0,1,1133.93,1211.66Z" transform="translate(-1078 -1171.69)"/>
</svg>
